<mxfile host="Electron" modified="2023-12-03T07:12:44.070Z" agent="Mozilla/5.0 (Windows NT 10.0; Win64; x64) AppleWebKit/537.36 (KHTML, like Gecko) draw.io/22.0.3 Chrome/114.0.5735.289 Electron/25.8.4 Safari/537.36" etag="9VfY7BZRVtyWnLs9utPV" version="22.0.3" type="device">
  <diagram name="Page-1" id="bP3UcgYPsuskanrqlsJG">
    <mxGraphModel dx="989" dy="610" grid="1" gridSize="10" guides="1" tooltips="1" connect="1" arrows="1" fold="1" page="1" pageScale="1" pageWidth="850" pageHeight="1100" math="0" shadow="0">
      <root>
        <mxCell id="0" />
        <mxCell id="1" parent="0" />
        <mxCell id="LUVUEeVzAeqWjfUSOVLT-7" style="rounded=0;orthogonalLoop=1;jettySize=auto;html=1;" edge="1" parent="1" source="LUVUEeVzAeqWjfUSOVLT-1" target="LUVUEeVzAeqWjfUSOVLT-10">
          <mxGeometry relative="1" as="geometry" />
        </mxCell>
        <mxCell id="LUVUEeVzAeqWjfUSOVLT-1" value="Order.csv" style="rounded=1;whiteSpace=wrap;html=1;" vertex="1" parent="1">
          <mxGeometry x="230" y="260" width="120" height="60" as="geometry" />
        </mxCell>
        <mxCell id="LUVUEeVzAeqWjfUSOVLT-2" value="product-suplier.csv" style="rounded=1;whiteSpace=wrap;html=1;" vertex="1" parent="1">
          <mxGeometry x="470" y="260" width="120" height="60" as="geometry" />
        </mxCell>
        <mxCell id="LUVUEeVzAeqWjfUSOVLT-14" style="edgeStyle=orthogonalEdgeStyle;rounded=0;orthogonalLoop=1;jettySize=auto;html=1;" edge="1" parent="1" source="LUVUEeVzAeqWjfUSOVLT-6" target="LUVUEeVzAeqWjfUSOVLT-15">
          <mxGeometry relative="1" as="geometry">
            <mxPoint x="290" y="620" as="targetPoint" />
          </mxGeometry>
        </mxCell>
        <mxCell id="LUVUEeVzAeqWjfUSOVLT-6" value="ProductDf" style="rounded=1;whiteSpace=wrap;html=1;" vertex="1" parent="1">
          <mxGeometry x="230" y="480" width="120" height="60" as="geometry" />
        </mxCell>
        <mxCell id="LUVUEeVzAeqWjfUSOVLT-8" style="rounded=0;orthogonalLoop=1;jettySize=auto;html=1;" edge="1" parent="1" source="LUVUEeVzAeqWjfUSOVLT-2" target="LUVUEeVzAeqWjfUSOVLT-10">
          <mxGeometry relative="1" as="geometry">
            <mxPoint x="343" y="330" as="sourcePoint" />
            <mxPoint x="427" y="470" as="targetPoint" />
          </mxGeometry>
        </mxCell>
        <mxCell id="LUVUEeVzAeqWjfUSOVLT-11" style="rounded=0;orthogonalLoop=1;jettySize=auto;html=1;" edge="1" parent="1" source="LUVUEeVzAeqWjfUSOVLT-10" target="LUVUEeVzAeqWjfUSOVLT-6">
          <mxGeometry relative="1" as="geometry" />
        </mxCell>
        <mxCell id="LUVUEeVzAeqWjfUSOVLT-13" style="rounded=0;orthogonalLoop=1;jettySize=auto;html=1;" edge="1" parent="1" source="LUVUEeVzAeqWjfUSOVLT-10" target="LUVUEeVzAeqWjfUSOVLT-12">
          <mxGeometry relative="1" as="geometry" />
        </mxCell>
        <mxCell id="LUVUEeVzAeqWjfUSOVLT-10" value="Tiền xử lý dữ liệu" style="ellipse;whiteSpace=wrap;html=1;" vertex="1" parent="1">
          <mxGeometry x="350" y="360" width="120" height="80" as="geometry" />
        </mxCell>
        <mxCell id="LUVUEeVzAeqWjfUSOVLT-17" style="edgeStyle=orthogonalEdgeStyle;rounded=0;orthogonalLoop=1;jettySize=auto;html=1;" edge="1" parent="1" source="LUVUEeVzAeqWjfUSOVLT-12" target="LUVUEeVzAeqWjfUSOVLT-16">
          <mxGeometry relative="1" as="geometry" />
        </mxCell>
        <mxCell id="LUVUEeVzAeqWjfUSOVLT-12" value="OrderDf" style="rounded=1;whiteSpace=wrap;html=1;" vertex="1" parent="1">
          <mxGeometry x="470" y="480" width="120" height="60" as="geometry" />
        </mxCell>
        <mxCell id="LUVUEeVzAeqWjfUSOVLT-15" value="LNR, SVR, EDA" style="rounded=1;whiteSpace=wrap;html=1;" vertex="1" parent="1">
          <mxGeometry x="230" y="630" width="120" height="60" as="geometry" />
        </mxCell>
        <mxCell id="LUVUEeVzAeqWjfUSOVLT-16" value="EDA" style="rounded=1;whiteSpace=wrap;html=1;" vertex="1" parent="1">
          <mxGeometry x="470" y="630" width="120" height="60" as="geometry" />
        </mxCell>
      </root>
    </mxGraphModel>
  </diagram>
</mxfile>
